<?xml version="1.0" encoding="utf-8"?>
<!-- Generator: Adobe Illustrator 16.0.0, SVG Export Plug-In . SVG Version: 6.00 Build 0)  -->
<!DOCTYPE svg PUBLIC "-//W3C//DTD SVG 1.1//EN" "http://www.w3.org/Graphics/SVG/1.1/DTD/svg11.dtd">
<svg version="1.1" id="图层_1" xmlns="http://www.w3.org/2000/svg" xmlns:xlink="http://www.w3.org/1999/xlink" x="0px" y="0px"
	 width="1000px" height="1000px" viewBox="0 0 1000 1000" enable-background="new 0 0 1000 1000" xml:space="preserve">
<polygon fill="#E84418" stroke="#030000" stroke-width="5" points="234.142,361.733 151.114,361.733 192.624,289.823 "/>
<polygon fill="#E84418" stroke="#030000" stroke-width="5" points="400.208,361.733 317.179,361.733 358.689,289.838 "/>
<polygon fill="#E84418" stroke="#030000" stroke-width="5" points="317.149,217.921 234.127,217.921 275.63,146.027 "/>
<polygon fill="none" points="251.712,113.34 251.652,113.34 251.683,113.325 "/>
<polygon fill="#E84418" stroke="#030000" stroke-width="5" points="234.142,361.733 151.114,361.733 192.624,289.823 "/>
<polygon fill="none" stroke="#030000" stroke-width="5" points="275.69,433.627 275.661,433.642 275.63,433.627 "/>
<polygon fill="#E84418" stroke="#030000" stroke-width="5" points="400.208,361.733 317.179,361.733 358.689,289.838 "/>
<line fill="none" stroke="#030000" stroke-width="5" x1="275.668" y1="433.627" x2="275.661" y2="433.642"/>
<line fill="none" stroke="#030000" stroke-width="5" x1="275.661" y1="433.642" x2="275.653" y2="433.627"/>
<linearGradient id="SVGID_1_" gradientUnits="userSpaceOnUse" x1="275.6606" y1="289.8384" x2="275.6606" y2="217.9214">
	<stop  offset="0" style="stop-color:#FFFFFF"/>
	<stop  offset="0" style="stop-color:#B7E1F8"/>
	<stop  offset="1" style="stop-color:#5DAEE1"/>
</linearGradient>
<polygon fill="url(#SVGID_1_)" stroke="#030000" stroke-width="5" points="400.208,217.921 358.689,289.838 192.624,289.823 
	151.114,217.921 "/>
<line fill="#E84418" stroke="#030000" stroke-width="5" x1="192.624" y1="289.823" x2="151.114" y2="361.733"/>
<line fill="#E84418" stroke="#030000" stroke-width="5" x1="275.63" y1="146.027" x2="234.127" y2="217.921"/>
<linearGradient id="SVGID_2_" gradientUnits="userSpaceOnUse" x1="275.6567" y1="433.6274" x2="275.6567" y2="289.8232">
	<stop  offset="0" style="stop-color:#FFFFFF"/>
	<stop  offset="0" style="stop-color:#D5EDFA"/>
	<stop  offset="1" style="stop-color:#5DAEE1"/>
</linearGradient>
<polygon fill="url(#SVGID_2_)" stroke="#030000" stroke-width="5" points="358.689,289.838 317.179,361.733 275.668,433.627 
	275.653,433.627 234.142,361.733 192.624,289.823 "/>
<line fill="#E84418" stroke="#030000" stroke-width="5" x1="400.208" y1="361.733" x2="317.179" y2="361.733"/>
<line fill="#E84418" stroke="#030000" stroke-width="5" x1="234.142" y1="361.733" x2="151.114" y2="361.733"/>
<line fill="#E84418" stroke="#030000" stroke-width="5" x1="317.149" y1="217.921" x2="275.63" y2="146.027"/>
<line fill="#E84418" stroke="#030000" stroke-width="5" x1="400.208" y1="361.733" x2="358.689" y2="289.838"/>
<linearGradient id="SVGID_3_" gradientUnits="userSpaceOnUse" x1="210.1143" y1="886.6758" x2="210.1143" y2="885.8965">
	<stop  offset="0" style="stop-color:#FFFFFF"/>
	<stop  offset="0" style="stop-color:#D5EDFA"/>
	<stop  offset="1" style="stop-color:#5DAEE1"/>
</linearGradient>
<path fill="url(#SVGID_3_)" d="M210.079,885.896c0.021,0.129,0.05,0.26,0.07,0.391c-0.021,0.129-0.05,0.26-0.07,0.389V885.896z"/>
<linearGradient id="SVGID_4_" gradientUnits="userSpaceOnUse" x1="210.1846" y1="886.6758" x2="210.1846" y2="885.8965">
	<stop  offset="0" style="stop-color:#FFFFFF"/>
	<stop  offset="0" style="stop-color:#D5EDFA"/>
	<stop  offset="1" style="stop-color:#5DAEE1"/>
</linearGradient>
<path fill="url(#SVGID_4_)" d="M210.149,886.287c0.02-0.131,0.05-0.262,0.07-0.391v0.779
	C210.199,886.547,210.169,886.416,210.149,886.287z"/>
<linearGradient id="SVGID_5_" gradientUnits="userSpaceOnUse" x1="275.9604" y1="869.6426" x2="275.9604" y2="433.6426">
	<stop  offset="0" style="stop-color:#FFFFFF"/>
	<stop  offset="0" style="stop-color:#D5EDFA"/>
	<stop  offset="1" style="stop-color:#5DAEE1"/>
</linearGradient>
<path fill="url(#SVGID_5_)" stroke="#030000" stroke-width="5" d="M276.019,869.252c-0.017,0.129-0.042,0.26-0.058,0.391
	c-0.017-0.131-0.041-0.262-0.058-0.391c-37.805-255.199-16.142-434.749,0-435.6c0.017-0.01,0.041-0.01,0.058-0.01
	c0.016,0,0.041,0,0.058,0.01C292.161,434.503,313.823,614.053,276.019,869.252z"/>
<path fill="#EEE93A" stroke="#030000" stroke-width="5" d="M400.069,854.838c-67.059-13.781-105.513-75.977-124.046-132.959
	c-18.525,56.982-56.979,119.178-124.038,132.959c0,0,102.268-68.391,102.268-210.598S151.986,433.642,151.986,433.642
	c67.059,13.782,105.513,75.977,124.038,132.958c18.533-56.98,56.987-119.175,124.046-132.958c0,0-102.268,68.391-102.268,210.598
	S400.069,854.838,400.069,854.838z"/>
<g>
	<linearGradient id="SVGID_6_" gradientUnits="userSpaceOnUse" x1="466.3428" y1="757.1816" x2="466.3428" y2="557.7227">
		<stop  offset="0" style="stop-color:#FFFFFF"/>
		<stop  offset="0" style="stop-color:#D5EDFA"/>
		<stop  offset="1" style="stop-color:#5DAEE1"/>
	</linearGradient>
	<path fill="url(#SVGID_6_)" stroke="#030000" stroke-width="5" d="M541.457,557.723V674.99c0,22.396,0.528,36.098,1.585,41.096
		c1.057,5.002,2.747,8.486,5.07,10.459c2.325,1.975,5.035,2.959,8.135,2.959c4.365,0,9.298-1.195,14.791-3.594l2.957,7.396
		l-57.893,23.875h-9.509v-40.99c-16.622,18.033-29.3,29.369-38.032,34.018c-8.736,4.648-17.96,6.973-27.679,6.973
		c-10.848,0-20.251-3.137-28.208-9.402c-7.96-6.266-13.489-14.332-16.586-24.191c-3.101-9.859-4.648-23.805-4.648-41.838v-86.418
		c0-9.152-0.988-15.492-2.958-19.016c-1.974-3.52-4.896-6.232-8.769-8.135c-3.875-1.902-10.882-2.781-21.023-2.641v-7.818h67.824
		v129.521c0,18.033,3.133,29.865,9.403,35.496c6.266,5.637,13.839,8.453,22.713,8.453c6.056,0,12.922-1.902,20.601-5.705
		c7.676-3.803,16.798-11.057,27.362-21.762V594.064c0-10.986-2.007-18.414-6.021-22.291c-4.015-3.873-12.36-5.951-25.038-6.232
		v-7.818H541.457z"/>
	<linearGradient id="SVGID_7_" gradientUnits="userSpaceOnUse" x1="637.7002" y1="757.1816" x2="637.7002" y2="552.0176">
		<stop  offset="0" style="stop-color:#FFFFFF"/>
		<stop  offset="0" style="stop-color:#D5EDFA"/>
		<stop  offset="1" style="stop-color:#5DAEE1"/>
	</linearGradient>
	<path fill="url(#SVGID_7_)" stroke="#030000" stroke-width="5" d="M685.348,709.219h7.605
		c-2.679,31.979-16.201,47.963-40.567,47.963c-8.595,0-15.954-2.359-22.082-7.078c-6.127-4.719-10.213-10.068-12.254-16.059
		c-2.044-5.986-3.063-16.375-3.063-31.164v-69.938c0-22.535-0.845-36.977-2.535-43.316c-1.69-6.338-5.916-9.508-12.677-9.508
		c-3.946,0-8.737,1.057-14.369,3.17l-2.958-7.605l58.317-23.666h9.297V704.57c0,12.539,1.194,21.129,3.592,25.777
		c2.393,4.648,6.762,6.973,13.101,6.973C676.33,737.32,682.527,727.953,685.348,709.219z"/>
	<linearGradient id="SVGID_8_" gradientUnits="userSpaceOnUse" x1="774.9346" y1="754.6465" x2="774.9346" y2="546.1016">
		<stop  offset="0" style="stop-color:#FFFFFF"/>
		<stop  offset="0" style="stop-color:#D5EDFA"/>
		<stop  offset="1" style="stop-color:#5DAEE1"/>
	</linearGradient>
	<path fill="url(#SVGID_8_)" stroke="#030000" stroke-width="5" d="M844.026,555.609c-24.509,0.707-44.829,8.102-60.957,22.188
		c-16.131,14.088-28.631,32.75-37.505,55.99c5.354-2.535,11.231-4.998,17.644-7.395c6.409-2.395,14.332-3.592,23.771-3.592
		c8.167,0,15.985,1.34,23.453,4.016c7.465,2.676,14.051,6.549,19.756,11.621c5.704,5.07,10.247,11.408,13.629,19.014
		c3.38,7.607,5.07,16.412,5.07,26.412c0,10.006-1.69,19.229-5.07,27.68c-3.382,8.453-8.347,15.92-14.897,22.396
		c-6.549,6.48-14.44,11.553-23.664,15.213c-9.228,3.662-19.686,5.494-31.377,5.494c-10.987,0-20.918-2.324-29.792-6.973
		s-16.517-10.809-22.925-18.488c-6.412-7.676-11.377-16.586-14.896-26.729c-3.521-10.143-5.282-20.633-5.282-31.482
		c0-14.227,2.958-28.699,8.874-43.42c5.917-14.717,14.823-28.135,26.729-40.25c11.902-12.111,26.798-22.008,44.687-29.688
		c17.888-7.676,38.805-11.516,62.754-11.516V555.609z M741.339,647.943c-0.563,2.959-1.092,6.414-1.584,10.355
		c-0.496,3.943-0.739,8.313-0.739,13.1c0,6.479,0.703,13.594,2.112,21.34c1.406,7.748,3.697,15.037,6.867,21.867
		c3.169,6.836,7.395,12.541,12.678,17.115c5.282,4.58,11.726,6.867,19.333,6.867c3.661,0,7.501-0.633,11.515-1.9
		c4.016-1.27,7.64-3.486,10.882-6.656c3.24-3.17,5.916-7.465,8.029-12.889c2.113-5.42,3.169-12.359,3.169-20.813
		c0-4.648-0.563-10.387-1.69-17.221c-1.129-6.83-3.099-13.416-5.916-19.756c-2.82-6.338-6.797-11.725-11.938-16.164
		c-5.145-4.436-11.656-6.654-19.545-6.654c-6.902,0-12.994,1.268-18.276,3.803C750.952,642.873,745.987,645.408,741.339,647.943z"/>
</g>
<g>
	<linearGradient id="SVGID_9_" gradientUnits="userSpaceOnUse" x1="609.4395" y1="512.5293" x2="609.4395" y2="398.0234">
		<stop  offset="0" style="stop-color:#FFFFFF"/>
		<stop  offset="0" style="stop-color:#FFFFFF"/>
		<stop  offset="1" style="stop-color:#E772A6"/>
	</linearGradient>
	<path fill="url(#SVGID_9_)" stroke="#030000" stroke-width="5" d="M642.331,479.757c-1.259-34.215-15.375-59.57-43.408-76.897
		c-3.17-1.959-6.83-3.174-10.348-4.51c-2.494-0.947-4.197,0.243-5.468,2.522c-3.673,6.595-5.58,13.793-6.188,21.155
		c-2.462,29.797,7.315,55.157,28.7,75.973c5.953,5.797,12.865,10.344,20.704,13.305c1.6,0.605,3.354,1.344,4.967,1.207
		c1.385-0.119,3.383-1.09,3.874-2.221c2.009-4.623,4.058-9.338,5.123-14.229C641.543,490.298,641.799,484.313,642.331,479.757z"/>
	<linearGradient id="SVGID_10_" gradientUnits="userSpaceOnUse" x1="663.6914" y1="508.2471" x2="663.6914" y2="397.811">
		<stop  offset="0" style="stop-color:#FFFFFF"/>
		<stop  offset="0" style="stop-color:#FFFFFF"/>
		<stop  offset="1" style="stop-color:#E772A6"/>
	</linearGradient>
	<path fill="url(#SVGID_10_)" stroke="#030000" stroke-width="5" d="M645.397,508.247c1.221-0.525,1.913-0.725,2.5-1.09
		c14.772-9.23,25.775-21.783,33.24-37.514c7.344-15.473,9.452-31.763,7.498-48.605c-0.842-7.259-2.509-14.399-6.145-20.915
		c-1.156-2.071-2.678-2.664-4.933-2.126c-8.536,2.033-15.526,6.873-22.087,12.349c-6.576,5.489-12.11,11.954-16.712,19.212
		c-0.912,1.439-0.917,2.551-0.126,4.031c9.204,17.204,12.524,35.628,10.721,54.935c-0.508,5.439-2.186,10.77-3.314,16.15
		C645.835,505.649,645.686,506.634,645.397,508.247z"/>
	<linearGradient id="SVGID_11_" gradientUnits="userSpaceOnUse" x1="691.0352" y1="509.3193" x2="691.0352" y2="421.9302">
		<stop  offset="0" style="stop-color:#FFFFFF"/>
		<stop  offset="0" style="stop-color:#FFFFFF"/>
		<stop  offset="1" style="stop-color:#E772A6"/>
	</linearGradient>
	<path fill="url(#SVGID_11_)" stroke="#030000" stroke-width="5" d="M660.073,509.319c1.798-0.537,3.659-0.924,5.384-1.639
		c22.497-9.332,39.135-24.885,49.698-46.883c4.036-8.406,6.333-17.282,7.073-26.535c0.223-2.793-0.324-5.645-0.485-8.473
		c-0.134-2.342-1.641-3.362-3.685-3.599c-6.787-0.785-13.41,0.271-19.899,2.18c-0.626,0.184-1.274,1.492-1.303,2.3
		c-0.119,3.442,0.147,6.901-0.008,10.34c-1.208,26.755-12.119,48.925-31.802,66.907c-1.707,1.559-3.504,3.018-5.259,4.525
		C659.883,508.735,659.979,509.028,660.073,509.319z"/>
	<linearGradient id="SVGID_12_" gradientUnits="userSpaceOnUse" x1="575.0371" y1="507.7393" x2="575.0371" y2="422.0508">
		<stop  offset="0" style="stop-color:#FFFFFF"/>
		<stop  offset="0" style="stop-color:#FFFFFF"/>
		<stop  offset="1" style="stop-color:#E772A6"/>
	</linearGradient>
	<path fill="url(#SVGID_12_)" stroke="#030000" stroke-width="5" d="M603.916,507.739c-6.97-6.898-13.442-13.859-18.626-21.963
		c-6.539-10.223-11.234-21.188-14.052-33.014c-2.034-8.542-2.802-17.152-2.354-25.882c0.123-2.395-0.706-3.509-3.109-3.684
		c-4.626-0.338-9.237-1.037-13.864-1.14c-4.148-0.091-5.493,0.875-5.647,4.977c-0.205,5.455-0.205,11.089,0.916,16.392
		c4.39,20.767,15.756,37.307,32.053,50.619c6.972,5.695,14.688,10.146,23.033,13.504
		C602.761,507.747,603.364,507.683,603.916,507.739z"/>
	<linearGradient id="SVGID_13_" gradientUnits="userSpaceOnUse" x1="632.5625" y1="423.1592" x2="632.5625" y2="388.6001">
		<stop  offset="0" style="stop-color:#FFFFFF"/>
		<stop  offset="0" style="stop-color:#FFFFFF"/>
		<stop  offset="1" style="stop-color:#E772A6"/>
	</linearGradient>
	<path fill="url(#SVGID_13_)" stroke="#030000" stroke-width="5" d="M616.981,405.958c0.452,0.571,0.877,1.176,1.369,1.719
		c4.321,4.774,8.697,9.498,12.955,14.327c1.166,1.321,1.824,1.702,3.159,0.113c4.251-5.059,8.712-9.942,12.969-14.997
		c0.566-0.673,0.948-2.34,0.54-2.867c-3.674-4.729-7.356-9.479-11.428-13.859c-2.347-2.525-3.951-2.249-6.759-0.025
		c-4.983,3.944-8.774,8.918-12.141,14.247C617.424,404.969,617.272,405.367,616.981,405.958z"/>
</g>
</svg>
